<?xml version="1.0" standalone="no"?><!DOCTYPE svg PUBLIC "-//W3C//DTD SVG 1.1//EN" "http://www.w3.org/Graphics/SVG/1.1/DTD/svg11.dtd"><svg t="1585748496347" class="icon" viewBox="0 0 1024 1024" version="1.1" xmlns="http://www.w3.org/2000/svg" p-id="1166" xmlns:xlink="http://www.w3.org/1999/xlink" width="32" height="32"><defs><style type="text/css"></style></defs><path d="M604.251565 147.656945" p-id="1167"></path><path d="M604.251565 147.656945c0 0 95.40693 55.951313 91.840708 122.590036 0 0-5.349845 145.222499-216.673831 179.169659 0 0-35.666314 20.068058-345.0742-5.053086 0 0 202.407919 102.181217 472.582245 42.774199 0 0 203.300242-52.80874 215.782531-166.911474C822.709019 320.226279 846.784344 197.636243 604.251565 147.656945z" p-id="1168"></path><path d="M648.383692 413.069827c16.822131 16.039301 33.322943 38.065967 32.042787 62.013379 0 0-3.843538 104.370069-155.723667 128.769782 0 0-25.63382 14.422478-248.00542-3.631714 0 0 145.471163 73.438593 339.64556 30.741142 0 0 146.112776-37.954427 155.083078-119.960139 0 0 12.837376-65.364707-94.987375-106.445334" p-id="1169"></path><path d="M640.1471 572.885695c6.000668 9.559727 9.92914 20.182668 9.338692 31.298843 0 0-3.215228 87.878466-130.199341 108.420315 0 0-21.432125 12.143575-207.353558-3.057639 0 0 121.625058 61.8343 283.97361 25.88453 0 0 122.161271-31.957853 129.662105-101.003392 0 0 8.086166-41.464367-48.729841-75.032904" p-id="1170"></path><path d="M459.206098 196.692754a36.597 37.476 0 1 0 74.899874 0 36.597 37.476 0 1 0-74.899874 0Z" p-id="1171"></path><path d="M518.949784 326.679247a36.597 37.476 0 1 0 74.899874 0 36.597 37.476 0 1 0-74.899874 0Z" p-id="1172"></path><path d="M372.717282 297.759591a36.597 37.476 0 1 0 74.899874 0 36.597 37.476 0 1 0-74.899874 0Z" p-id="1173"></path><path d="M244.317936 202.202235a36.597 37.476 0 1 0 74.899874 0 36.597 37.476 0 1 0-74.899874 0Z" p-id="1174"></path><path d="M169.418063 314.105884a36.597 37.476 0 1 0 74.899874 0 36.597 37.476 0 1 0-74.899874 0Z" p-id="1175"></path><path d="M300.740994 398.346497a33.74 34.55 0 1 0 69.052702 0 33.74 34.55 0 1 0-69.052702 0Z" p-id="1176"></path><path d="M464.6726 547.586496a29.38 30.088 0 1 0 60.129472 0 29.38 30.088 0 1 0-60.129472 0Z" p-id="1177"></path><path d="M364.597347 547.586496c0 18.057261-14.296611 32.695656-31.92613 32.695656-17.634636 0-31.9292-14.638395-31.9292-32.695656 0-18.056238 14.294564-32.695656 31.9292-32.695656C350.300736 514.891863 364.597347 529.531282 364.597347 547.586496z" p-id="1178"></path><path d="M429.924191 683.818227c0 17.002232-13.462616 30.789237-30.063713 30.789237-16.606213 0-30.066783-13.787004-30.066783-30.789237 0-17.004279 13.46057-30.789237 30.066783-30.789237C416.461575 653.02899 429.924191 666.813948 429.924191 683.818227z" p-id="1179"></path></svg>